<?xml version="1.0" encoding="UTF-8"?>
<svg version="1.1" xmlns="http://www.w3.org/2000/svg" width="225" height="225">
<path d="M0 0 C0.97125824 -0.01606293 1.94251648 -0.03212585 2.94320679 -0.04867554 C7.38937846 -0.09293354 11.83539812 -0.1341853 16.28173828 -0.15722656 C18.63112278 -0.17380357 20.98045649 -0.20111618 23.32958984 -0.23925781 C26.70648517 -0.29384636 30.08219636 -0.31587288 33.45947266 -0.33056641 C34.51266693 -0.35323578 35.56586121 -0.37590515 36.65097046 -0.39926147 C39.33755618 -0.39142886 41.80340092 -0.34213605 44.43603516 0.19287109 C46.53833008 2.48217773 46.53833008 2.48217773 47.43603516 5.19287109 C47.68474365 5.83329346 47.93345215 6.47371582 48.18969727 7.13354492 C48.38313721 7.77831787 48.57657715 8.42309082 48.77587891 9.08740234 C50.90528413 15.78635859 53.48462817 22.31888472 55.99853516 28.88037109 C56.7433189 30.82638773 57.48751573 32.77262131 58.23020935 34.71943665 C58.90103821 36.47762755 59.5738707 38.23505361 60.24682617 39.99243164 C61.37908896 43.03961556 62.42775942 46.10271157 63.43603516 49.19287109 C70.6532881 49.44174188 77.5519481 48.47844131 84.68603516 47.44287109 C85.93989014 47.26530273 87.19374512 47.08773437 88.4855957 46.90478516 C91.79378646 46.43528075 95.10122167 45.96101845 98.40838623 45.484375 C101.79332857 44.9977405 105.1791719 44.51746051 108.56494141 44.03662109 C115.18947894 43.09451616 121.8130927 42.14612117 128.43603516 41.19287109 C128.43603516 42.18287109 128.43603516 43.17287109 128.43603516 44.19287109 C127.80624756 44.36415527 127.17645996 44.53543945 126.52758789 44.71191406 C123.64277934 45.49677701 120.75815607 46.28231885 117.87353516 47.06787109 C116.88289062 47.33728516 115.89224609 47.60669922 114.87158203 47.88427734 C113.9015625 48.14853516 112.93154297 48.41279297 111.93212891 48.68505859 C110.60459595 49.04639893 110.60459595 49.04639893 109.25024414 49.41503906 C105.9729494 50.32086548 102.70468019 51.25632916 99.43603516 52.19287109 C94.49996838 53.59378907 89.56212103 54.98836437 84.62353516 56.38037109 C83.92293976 56.57784943 83.22234436 56.77532776 82.5005188 56.97879028 C69.6664228 60.5929321 56.80814322 64.11044805 43.91601562 67.51269531 C41.76539593 68.10253844 39.65550581 68.76307526 37.53369141 69.44677734 C32.32177291 70.70210702 32.32177291 70.70210702 29.43603516 69.19287109 C27.77755953 66.27629688 26.782575 63.18757573 25.74853516 60.00537109 C25.45398438 59.15394531 25.15943359 58.30251953 24.85595703 57.42529297 C24.0284501 55.02087396 23.22791295 52.60922066 22.43603516 50.19287109 C22.03771484 49.00048828 21.63939453 47.80810547 21.22900391 46.57958984 C20.96732422 45.79197266 20.70564453 45.00435547 20.43603516 44.19287109 C20.20416504 44.88848145 19.97229492 45.5840918 19.73339844 46.30078125 C17.30094401 53.59814453 14.86848958 60.89550781 12.43603516 68.19287109 C12.20940186 69.24442383 11.98276855 70.29597656 11.74926758 71.37939453 C10.43603516 74.19287109 10.43603516 74.19287109 7.38598633 75.8203125 C6.09169001 76.25315292 4.78839596 76.65966581 3.47900391 77.04443359 C2.78019608 77.27061371 2.08138824 77.49679382 1.36140442 77.72982788 C-0.87802255 78.44872542 -3.12626918 79.13352204 -5.37646484 79.81787109 C-6.84786844 80.28441765 -8.31858156 80.75314781 -9.78857422 81.22412109 C-13.36413266 82.36396609 -16.9491508 83.46985273 -20.53814697 84.56652832 C-22.48441289 85.16827521 -24.42356206 85.79289539 -26.36230469 86.41845703 C-27.50521973 86.78487305 -28.64813477 87.15128906 -29.82568359 87.52880859 C-30.81914795 87.85155762 -31.8126123 88.17430664 -32.83618164 88.50683594 C-35.53195591 89.18482087 -37.7979723 89.327213 -40.56396484 89.19287109 C-40.17241211 88.22184448 -40.17241211 88.22184448 -39.77294922 87.23120117 C-38.53459653 84.1567358 -37.29929427 81.08105241 -36.06396484 78.00537109 C-35.65404297 76.98894531 -35.24412109 75.97251953 -34.82177734 74.92529297 C-32.06377492 68.05118087 -29.40036879 61.14726792 -26.77880859 54.22021484 C-22.90425862 43.99820851 -18.8618051 33.84876891 -14.75219727 23.71923828 C-13.59932283 20.87593139 -12.45163503 18.03056405 -11.30419922 15.18505859 C-10.56947639 13.36983167 -9.8344623 11.5547226 -9.09912109 9.73974609 C-8.75752457 8.89208679 -8.41592804 8.04442749 -8.0639801 7.17108154 C-5.17837503 0.07750841 -5.17837503 0.07750841 0 0 Z " fill="#213D77" transform="translate(94.56396484375,42.80712890625)"/>
<path d="M0 0 C4.96567727 12.28935771 9.73042308 24.65119615 14.46826172 37.02978516 C15.42587141 39.5306141 16.38478463 42.03094065 17.34375 44.53125 C17.65143311 45.3363501 17.95911621 46.1414502 18.27612305 46.97094727 C19.74257405 50.79384675 21.23531454 54.60088094 22.8046875 58.3828125 C23.08590454 59.06468628 23.36712158 59.74656006 23.65686035 60.44909668 C24.4141125 62.27454003 25.18222576 64.09546732 25.95117188 65.91601562 C27 69 27 69 27 74 C12.15 74 -2.7 74 -18 74 C-21.37531733 66.12425957 -21.37531733 66.12425957 -22.59399414 62.36914062 C-22.86760269 61.53137085 -23.14121124 60.69360107 -23.42311096 59.83044434 C-23.84982338 58.50671814 -23.84982338 58.50671814 -24.28515625 57.15625 C-24.58691269 56.22832642 -24.88866913 55.30040283 -25.1995697 54.34436035 C-25.83388278 52.39169301 -26.46663297 50.43851736 -27.09790039 48.48486328 C-28.05981947 45.50829463 -29.02655477 42.53332456 -29.99414062 39.55859375 C-30.61226171 37.6537375 -31.23010945 35.74879251 -31.84765625 33.84375 C-32.13415543 32.96126587 -32.4206546 32.07878174 -32.71583557 31.16955566 C-33.24714222 29.52377221 -33.77365476 27.87643031 -34.29446411 26.22729492 C-34.74123582 24.81688847 -35.19997602 23.41017065 -35.67501831 22.0090332 C-36.85432217 18.35357915 -37.64780593 15.56933895 -36 12 C-33.18017578 10.43847656 -33.18017578 10.43847656 -29.4453125 9.140625 C-28.78796112 8.90591492 -28.13060974 8.67120483 -27.45333862 8.42938232 C-25.35014961 7.68347864 -23.23832481 6.96661753 -21.125 6.25 C-19.7089759 5.75317783 -18.29360117 5.25450068 -16.87890625 4.75390625 C-3.38699505 0 -3.38699505 0 0 0 Z " fill="#CD0B0E" transform="translate(165,109)"/>
<path d="M0 0 C-2.25709338 9.06711655 -5.24514973 17.85214304 -8.29833984 26.67358398 C-9.13372809 29.08772278 -9.96374233 31.50366042 -10.79296875 33.91992188 C-11.3226096 35.45843908 -11.85254644 36.99685442 -12.3828125 38.53515625 C-12.6307254 39.25590836 -12.87863831 39.97666046 -13.13406372 40.71925354 C-14.8832965 45.76659301 -14.8832965 45.76659301 -16 48 C-31.84 48 -47.68 48 -64 48 C-59.5 35.625 -59.5 35.625 -56.75 29.8125 C-56.22921875 28.70519531 -55.7084375 27.59789062 -55.171875 26.45703125 C-54.59179688 25.24080078 -54.59179688 25.24080078 -54 24 C-55.19206055 24.21148682 -55.19206055 24.21148682 -56.40820312 24.42724609 C-85.58875708 29.58495547 -85.58875708 29.58495547 -99 31 C-98 29 -98 29 -95.32421875 27.921875 C-94.12410156 27.53515625 -92.92398438 27.1484375 -91.6875 26.75 C-91.01291748 26.53166504 -90.33833496 26.31333008 -89.64331055 26.08837891 C-82.86497431 23.91432622 -76.04130736 21.88919565 -69.21875 19.859375 C-61.24001243 17.48078769 -53.27614376 15.05353753 -45.3125 12.625 C-44.14942825 12.27094086 -44.14942825 12.27094086 -42.96286011 11.909729 C-35.01959305 9.49035591 -27.08710829 7.04744644 -19.19140625 4.4765625 C-18.02891357 4.09806152 -16.8664209 3.71956055 -15.66870117 3.32958984 C-13.52202938 2.62596649 -11.37752865 1.91567373 -9.2355957 1.19775391 C-8.2993335 0.89015137 -7.36307129 0.58254883 -6.3984375 0.265625 C-5.59067871 -0.00475586 -4.78291992 -0.27513672 -3.95068359 -0.55371094 C-2 -1 -2 -1 0 0 Z " fill="#1D3361" transform="translate(99,133)"/>
<path d="M0 0 C3.37064536 3.00333144 5.04765088 5.77094798 6.75 9.9375 C7.17796875 10.95714844 7.6059375 11.97679687 8.046875 13.02734375 C9 16 9 16 9 21 C-5.85 21 -20.7 21 -36 21 C-39.375 13.125 -39.375 13.125 -39 8 C-37.68 8.33 -36.36 8.66 -35 9 C-35 10.98 -35 12.96 -35 15 C-32.8614515 12.8614515 -32.57344937 11.86724686 -32 9 C-31 12 -31 12 -31 16 C-30.25492188 15.82597656 -29.50984375 15.65195313 -28.7421875 15.47265625 C-23.49567065 14.80999598 -18.3945995 15.15520003 -13.125 15.4375 C-12.05507812 15.48970703 -10.98515625 15.54191406 -9.8828125 15.59570312 C-7.25486761 15.72475399 -4.62736387 15.85969152 -2 16 C0.70925592 9.64018309 0.70925592 9.64018309 0 3 C0 2.01 0 1.02 0 0 Z " fill="#C76667" transform="translate(183,162)"/>
<path d="M0 0 C0.66 0.66 1.32 1.32 2 2 C-5.59066442 4.61747049 -13.272099 6.82597774 -21 9 C-22.70542969 9.48919922 -22.70542969 9.48919922 -24.4453125 9.98828125 C-28.20714839 11.05895762 -31.97454887 12.10358537 -35.75 13.125 C-36.40871094 13.30675781 -37.06742188 13.48851563 -37.74609375 13.67578125 C-40.59409583 14.44410635 -43.03485592 15 -46 15 C-46.042721 13.33388095 -46.04063832 11.66617115 -46 10 C-45.67 9.67 -45.34 9.34 -45 9 C-48.63 9 -52.26 9 -56 9 C-56 8.67 -56 8.34 -56 8 C-48.73496267 6.90924212 -41.46825009 5.83049431 -34.19914436 4.76716423 C-30.82406843 4.27306796 -27.44971556 3.77481122 -24.07666016 3.26708984 C-20.20132269 2.68394879 -16.32346424 2.11882295 -12.4453125 1.5546875 C-11.23070343 1.36937469 -10.01609436 1.18406189 -8.76467896 0.99313354 C-7.08316238 0.75265793 -7.08316238 0.75265793 -5.36767578 0.50732422 C-4.37728302 0.36076385 -3.38689026 0.21420349 -2.3664856 0.0632019 C-1.58554535 0.04234528 -0.8046051 0.02148865 0 0 Z " fill="#404C66" transform="translate(222,84)"/>
<path d="M0 0 C-2.08030399 8.01091642 -4.53329402 15.84967294 -7.1875 23.6875 C-7.73954102 25.33008789 -7.73954102 25.33008789 -8.30273438 27.00585938 C-9.19904876 29.67152163 -10.09817383 32.3361985 -11 35 C-12.06354855 31.3410755 -11.83070279 28.73816257 -11 25 C-10.67 24.67 -10.34 24.34 -10 24 C-10.33 23.01 -10.66 22.02 -11 21 C-10.5625 18.8125 -10.5625 18.8125 -10 17 C-8.68 16.67 -7.36 16.34 -6 16 C-6 14.02 -6 12.04 -6 10 C-6.99 10.33 -7.98 10.66 -9 11 C-9.33 10.34 -9.66 9.68 -10 9 C-13.36857717 7.43999066 -13.36857717 7.43999066 -17 7 C-17 7.66 -17 8.32 -17 9 C-16.34 9.33 -15.68 9.66 -15 10 C-17.81814566 11.40907283 -19.17277204 10.50872691 -22.125 9.5625 C-23.03507812 9.27503906 -23.94515625 8.98757812 -24.8828125 8.69140625 C-25.58148438 8.46324219 -26.28015625 8.23507813 -27 8 C-23.45350569 4.45350569 -18.22249736 3.73038579 -13.5 2.3125 C-12.42878906 1.97927734 -11.35757813 1.64605469 -10.25390625 1.30273438 C-9.23167969 0.99271484 -8.20945312 0.68269531 -7.15625 0.36328125 C-6.21587891 0.07751221 -5.27550781 -0.20825684 -4.30664062 -0.50268555 C-2 -1 -2 -1 0 0 Z " fill="#556FA0" transform="translate(99,133)"/>
<path d="M0 0 C0 0.99 0 1.98 0 3 C0.66 3 1.32 3 2 3 C1.6875 4.9375 1.6875 4.9375 1 7 C-2.9589011 8.3196337 -5.77762261 9 -10 9 C-10 8.34 -10 7.68 -10 7 C-11.32 7.33 -12.64 7.66 -14 8 C-13.34 8.66 -12.68 9.32 -12 10 C-13.65 10.33 -15.3 10.66 -17 11 C-17.33 10.34 -17.66 9.68 -18 9 C-21.78383679 9.92493788 -23.56693694 10.39371171 -25.875 13.625 C-26.431875 14.800625 -26.431875 14.800625 -27 16 C-26.34 16.33 -25.68 16.66 -25 17 C-25.309375 17.5775 -25.61875 18.155 -25.9375 18.75 C-26.92871384 20.84904107 -27.47548801 22.75074138 -28 25 C-28.53532823 23.44240657 -29.05265378 21.87861955 -29.5625 20.3125 C-29.85253906 19.44238281 -30.14257812 18.57226562 -30.44140625 17.67578125 C-31.088414 14.57647839 -31.0773505 12.98083469 -30 10 C-27.45556641 8.5144043 -27.45556641 8.5144043 -24.1015625 7.32421875 C-22.90015625 6.88916016 -21.69875 6.45410156 -20.4609375 6.00585938 C-19.18229781 5.56638836 -17.90365191 5.12693544 -16.625 4.6875 C-15.35353001 4.23028224 -14.08268695 3.77131701 -12.8125 3.31054688 C-3.51309915 0 -3.51309915 0 0 0 Z " fill="#DD1113" transform="translate(159,111)"/>
<path d="M0 0 C-1.65 0.66 -3.3 1.32 -5 2 C-5 2.99 -5 3.98 -5 5 C-3.68 5.66 -2.36 6.32 -1 7 C-5.55301563 7.69513151 -10.10624434 8.38884491 -14.65966797 9.08129883 C-16.20562441 9.31659514 -17.75152402 9.55226515 -19.29736328 9.78833008 C-21.53142353 10.12942449 -23.76569112 10.46913219 -26 10.80859375 C-27.02081665 10.96490517 -27.02081665 10.96490517 -28.06225586 11.12437439 C-32.70060818 11.82726763 -37.34348221 12.43385111 -42 13 C-41 11 -41 11 -38.32421875 9.921875 C-37.12410156 9.53515625 -35.92398438 9.1484375 -34.6875 8.75 C-33.71151855 8.43337402 -33.71151855 8.43337402 -32.71582031 8.11035156 C-24.49779902 5.47062351 -16.21714152 3.02634107 -7.93847656 0.58496094 C-2.85087255 -0.95029085 -2.85087255 -0.95029085 0 0 Z " fill="#626E85" transform="translate(42,151)"/>
<path d="M0 0 C1.9375 0.9375 1.9375 0.9375 4 3 C4.66174825 5.9858081 4.87205948 8.94861869 5 12 C6.32 12 7.64 12 9 12 C9.33 12.99 9.66 13.98 10 15 C10.66 14.67 11.32 14.34 12 14 C12.99 14.66 13.98 15.32 15 16 C14.01 16.33 13.02 16.66 12 17 C12.66 17.66 13.32 18.32 14 19 C14.66 18.67 15.32 18.34 16 18 C18.00800456 18.28112064 20.01014051 18.61067967 22 19 C22.33 18.01 22.66 17.02 23 16 C23 16.66 23 17.32 23 18 C23.99 18.33 24.98 18.66 26 19 C23.77518771 19.70146314 21.54492632 20.38565954 19.3125 21.0625 C18.07113281 21.44535156 16.82976562 21.82820313 15.55078125 22.22265625 C9.80016218 23.48159266 9.80016218 23.48159266 7 22 C5.29987702 19.02069507 4.26015118 15.87373603 3.1875 12.625 C2.87619141 11.7484375 2.56488281 10.871875 2.24414062 9.96875 C0 3.51746223 0 3.51746223 0 0 Z " fill="#314F8F" transform="translate(117,90)"/>
<path d="M0 0 C3.72897326 3.21463212 5.49196326 6.31714908 7 11 C6.67 13.31 6.34 15.62 6 18 C-0.93 18 -7.86 18 -15 18 C-15 17.67 -15 17.34 -15 17 C-14.18015625 16.99742187 -13.3603125 16.99484375 -12.515625 16.9921875 C-5.65661447 16.92267643 -5.65661447 16.92267643 -0.1875 13.25 C1.0730115 9.80017907 1.13997733 8.41993199 0 5 C0 3.33333333 0 1.66666667 0 0 Z " fill="#A1080A" transform="translate(183,162)"/>
<path d="M0 0 C-0.99 0.66 -1.98 1.32 -3 2 C-3.72965366 4.56282742 -3.72965366 4.56282742 -4 7 C-4.90363281 6.91621094 -5.80726563 6.83242187 -6.73828125 6.74609375 C-7.91777344 6.64425781 -9.09726563 6.54242188 -10.3125 6.4375 C-11.48425781 6.33308594 -12.65601563 6.22867188 -13.86328125 6.12109375 C-17.03032575 5.81422566 -17.03032575 5.81422566 -20 7 C-20.66 5.68 -21.32 4.36 -22 3 C-18.45924729 1.42490928 -15.42134574 0.67057116 -11.5625 0.375 C-10.60859375 0.30152344 -9.6546875 0.22804688 -8.671875 0.15234375 C-5.77549005 -0.01280101 -2.90041071 -0.07838948 0 0 Z " fill="#11244A" transform="translate(180,92)"/>
<path d="M0 0 C1.59412284 3.18824568 1.10174735 6.62896662 1.0625 10.125 C1.05798828 10.87910156 1.05347656 11.63320312 1.04882812 12.41015625 C1.03703499 14.27347127 1.01909942 16.13674555 1 18 C0.05125 17.649375 -0.8975 17.29875 -1.875 16.9375 C-4.87060172 15.64973223 -4.87060172 15.64973223 -7 17 C-6.50247891 11.15412716 -4.91416125 6.12452507 -2 1 C-1.34 0.67 -0.68 0.34 0 0 Z " fill="#102145" transform="translate(46,158)"/>
<path d="M0 0 C3 1 3 1 5 3 C7.09826335 2.60351287 9.010743 1.91217298 11.02734375 1.21484375 C11.67832031 1.14394531 12.32929687 1.07304688 13 1 C14.75390625 2.44140625 14.75390625 2.44140625 16 4 C13.44013121 4.84226 10.87760985 5.67398551 8.3125 6.5 C7.2306543 6.85771484 7.2306543 6.85771484 6.12695312 7.22265625 C2.30592343 8.44398994 -0.93442056 9.32075577 -5 9 C-3.46395304 5.85808576 -1.94268841 2.91403262 0 0 Z " fill="#475C86" transform="translate(59,123)"/>
<path d="M0 0 C1.98 0.495 1.98 0.495 4 1 C3.938125 1.94875 3.87625 2.8975 3.8125 3.875 C3.874375 4.90625 3.93625 5.9375 4 7 C4.99 7.66 5.98 8.32 7 9 C6.67 10.32 6.34 11.64 6 13 C6.99 13.66 7.98 14.32 9 15 C10.01557588 18.3006216 10.1092904 19.67212881 9 23 C8.34 23 7.68 23 7 23 C7.33 20.69 7.66 18.38 8 16 C3.46167247 14.18397483 3.46167247 14.18397483 -1 15 C-0.91621094 14.38511719 -0.83242187 13.77023438 -0.74609375 13.13671875 C-0.64425781 12.32847656 -0.54242188 11.52023438 -0.4375 10.6875 C-0.28087891 9.48673828 -0.28087891 9.48673828 -0.12109375 8.26171875 C0.14755178 5.83182884 0.14755178 5.83182884 -1 3 C-0.34 3 0.32 3 1 3 C0.67 2.01 0.34 1.02 0 0 Z " fill="#12264D" transform="translate(137,48)"/>
<path d="M0 0 C0.99 0.66 1.98 1.32 3 2 C3.99 2 4.98 2 6 2 C7.68892318 2.10401796 9.37651644 2.23098373 11.0625 2.375 C12.37927734 2.47941406 12.37927734 2.47941406 13.72265625 2.5859375 C16 3 16 3 18 5 C11.17587475 7.59966676 4.22876697 7.4031608 -3 7 C-3.66 6.67 -4.32 6.34 -5 6 C-4 4 -4 4 -2 3 C-1.34 2.01 -0.68 1.02 0 0 Z " fill="#182D5B" transform="translate(157,95)"/>
<path d="M0 0 C0.66 0.66 1.32 1.32 2 2 C-18.3 9 -18.3 9 -24 9 C-23.34 8.34 -22.68 7.68 -22 7 C-21.01 7 -20.02 7 -19 7 C-19 6.34 -19 5.68 -19 5 C-21.64 5 -24.28 5 -27 5 C-27 4.67 -27 4.34 -27 4 C-22.54441921 3.27355627 -18.08528626 2.57191973 -13.625 1.875 C-12.35398438 1.66746094 -11.08296875 1.45992188 -9.7734375 1.24609375 C-8.56171875 1.05917969 -7.35 0.87226562 -6.1015625 0.6796875 C-4.98088379 0.50163574 -3.86020508 0.32358398 -2.70556641 0.14013672 C-1.81272949 0.0938916 -0.91989258 0.04764648 0 0 Z " fill="#9FA7B7" transform="translate(222,84)"/>
<path d="M0 0 C3.28874194 4.9331129 5.06238066 10.54780059 7.1875 16.0625 C7.66380859 17.27228516 8.14011719 18.48207031 8.63085938 19.72851562 C9.07623047 20.88158203 9.52160156 22.03464844 9.98046875 23.22265625 C10.39192139 24.28234619 10.80337402 25.34203613 11.22729492 26.43383789 C12 29 12 29 11 31 C10.01 31.66 9.02 32.32 8 33 C8 30.36 8 27.72 8 25 C7.01 24.67 6.02 24.34 5 24 C5 21.03 5 18.06 5 15 C4.01 15 3.02 15 2 15 C2.33 13.02 2.66 11.04 3 9 C2.34 9 1.68 9 1 9 C0.67 6.03 0.34 3.06 0 0 Z " fill="#C95859" transform="translate(171,126)"/>
<path d="M0 0 C-0.33 0.66 -0.66 1.32 -1 2 C-3.16137695 2.61010742 -3.16137695 2.61010742 -5.98828125 3.10546875 C-7.51291992 3.37327148 -7.51291992 3.37327148 -9.06835938 3.64648438 C-10.13892578 3.82501953 -11.20949219 4.00355469 -12.3125 4.1875 C-13.90094727 4.47270508 -13.90094727 4.47270508 -15.52148438 4.76367188 C-24.18767914 6.24727186 -24.18767914 6.24727186 -28 5 C-19.25711426 0.45193317 -9.79306254 -2.22569603 0 0 Z " fill="#3E455E" transform="translate(28,158)"/>
<path d="M0 0 C0.66 1.32 1.32 2.64 2 4 C0.68 4 -0.64 4 -2 4 C-2.33 4.99 -2.66 5.98 -3 7 C-4 8 -4 8 -6.5 8.125 C-9 8 -9 8 -10 7 C-10.33 7.66 -10.66 8.32 -11 9 C-11.99 8.67 -12.98 8.34 -14 8 C-13.67 7.34 -13.34 6.68 -13 6 C-13.99 5.67 -14.98 5.34 -16 5 C-10.72 3.35 -5.44 1.7 0 0 Z " fill="#142A52" transform="translate(50,148)"/>
<path d="M0 0 C-1.6396875 0.8353125 -1.6396875 0.8353125 -3.3125 1.6875 C-6.68037367 3.58959869 -8.32185976 5.44629125 -10 9 C-9.34 9.33 -8.68 9.66 -8 10 C-8.309375 10.5775 -8.61875 11.155 -8.9375 11.75 C-9.92871384 13.84904107 -10.47548801 15.75074138 -11 18 C-11.53532823 16.44240657 -12.05265378 14.87861955 -12.5625 13.3125 C-12.85253906 12.44238281 -13.14257812 11.57226562 -13.44140625 10.67578125 C-14.08013775 7.61612335 -14.16811834 5.91047973 -13 3 C-10.56640625 1.6015625 -10.56640625 1.6015625 -7.5625 0.625 C-6.57378906 0.28726563 -5.58507812 -0.05046875 -4.56640625 -0.3984375 C-2 -1 -2 -1 0 0 Z " fill="#E16365" transform="translate(142,118)"/>
<path d="M0 0 C0.6875 1.8125 0.6875 1.8125 1 4 C-0.27462557 6.20935099 -1.5840512 6.86817371 -3.984375 7.62890625 C-5.97792731 8.13436366 -7.98853829 8.57132783 -10 9 C-10.66 8.01 -11.32 7.02 -12 6 C-10.02 5.34 -8.04 4.68 -6 4 C-7.98 3.34 -9.96 2.68 -12 2 C-9.23157127 1.07719042 -7.71056559 0.91629327 -4.875 1 C-3.59625 1 -2.3175 1 -1 1 C-0.67 0.67 -0.34 0.34 0 0 Z " fill="#4868A8" transform="translate(105,111)"/>
<path d="M0 0 C15.84 0 31.68 0 48 0 C48 0.99 48 1.98 48 3 C46.70457275 2.84152588 45.40914551 2.68305176 44.07446289 2.51977539 C39.31504124 1.99244799 34.59361928 1.78549818 29.80859375 1.68359375 C28.56252098 1.6524221 28.56252098 1.6524221 27.29127502 1.62062073 C24.67342285 1.55595518 22.0554824 1.49663208 19.4375 1.4375 C17.64777783 1.39423555 15.85806414 1.35061894 14.06835938 1.30664062 C9.71232685 1.20036076 5.35620681 1.09886742 1 1 C0.67 1.66 0.34 2.32 0 3 C0 2.01 0 1.02 0 0 Z " fill="#0B1A3C" transform="translate(90,44)"/>
<path d="M0 0 C0.87840996 3.09720845 0.99435406 4.90645403 0 8 C-0.66 8 -1.32 8 -2 8 C-1.67 8.99 -1.34 9.98 -1 11 C-0.87625 11.70125 -0.7525 12.4025 -0.625 13.125 C-0.315625 14.053125 -0.315625 14.053125 0 15 C0.99 15.33 1.98 15.66 3 16 C2.34 16 1.68 16 1 16 C1 17.65 1 19.3 1 21 C0.01 21.33 -0.98 21.66 -2 22 C-2.33 21.34 -2.66 20.68 -3 20 C-2.67 19.34 -2.34 18.68 -2 18 C-2.66 17.67 -3.32 17.34 -4 17 C-3.67 16.34 -3.34 15.68 -3 15 C-3.66 15 -4.32 15 -5 15 C-4.37321829 11.33827525 -3.35548154 8.1181005 -1.9375 4.6875 C-1.39416016 3.36298828 -1.39416016 3.36298828 -0.83984375 2.01171875 C-0.56269531 1.34785156 -0.28554687 0.68398437 0 0 Z " fill="#4D669B" transform="translate(77,74)"/>
<path d="M0 0 C2 1.8125 2 1.8125 4 4 C4 4.99 4 5.98 4 7 C2.68 7.33 1.36 7.66 0 8 C0 9.32 0 10.64 0 12 C-0.66 12 -1.32 12 -2 12 C-2.99 13.98 -3.98 15.96 -5 18 C-6.39214652 13.82356045 -4.70664266 11.16562207 -3.0625 7.3125 C-2.77181641 6.61060547 -2.48113281 5.90871094 -2.18164062 5.18554688 C-1.46289687 3.45349225 -0.73254669 1.72626219 0 0 Z " fill="#5C6E97" transform="translate(84,56)"/>
<path d="M0 0 C0.33 0.99 0.66 1.98 1 3 C-1.97 2.505 -1.97 2.505 -5 2 C-5 2.66 -5 3.32 -5 4 C-4.34 4.33 -3.68 4.66 -3 5 C-5.81814566 6.40907283 -7.17277204 5.50872691 -10.125 4.5625 C-11.03507812 4.27503906 -11.94515625 3.98757812 -12.8828125 3.69140625 C-13.58148438 3.46324219 -14.28015625 3.23507813 -15 3 C-12.50497077 0.50497077 -10.94071581 0.41462527 -7.5 -0.1875 C-6.5203125 -0.36667969 -5.540625 -0.54585937 -4.53125 -0.73046875 C-2 -1 -2 -1 0 0 Z " fill="#39568A" transform="translate(87,138)"/>
<path d="M0 0 C0.66 0 1.32 0 2 0 C2 0.66 2 1.32 2 2 C2.62648438 1.97679688 3.25296875 1.95359375 3.8984375 1.9296875 C4.71570313 1.91164063 5.53296875 1.89359375 6.375 1.875 C7.18710938 1.85179688 7.99921875 1.82859375 8.8359375 1.8046875 C11 2 11 2 13 4 C10.69 4.33 8.38 4.66 6 5 C6.66 5.66 7.32 6.32 8 7 C5.13822943 8.43088528 3.06624227 7.59991697 0 7 C0 4.69 0 2.38 0 0 Z " fill="#244997" transform="translate(88,112)"/>
<path d="M0 0 C0 0.33 0 0.66 0 1 C-1.98 1 -3.96 1 -6 1 C-6 1.66 -6 2.32 -6 3 C-5.34 3.33 -4.68 3.66 -4 4 C-5.65 4.33 -7.3 4.66 -9 5 C-8.67 4.01 -8.34 3.02 -8 2 C-9.32 2 -10.64 2 -12 2 C-11.67 2.99 -11.34 3.98 -11 5 C-11.556875 4.9278125 -12.11375 4.855625 -12.6875 4.78125 C-17.8359445 4.15508783 -22.81463038 3.90572055 -28 4 C-28 3.67 -28 3.34 -28 3 C-24.83486722 2.48996146 -21.66769716 1.99384043 -18.5 1.5 C-17.613125 1.35691406 -16.72625 1.21382813 -15.8125 1.06640625 C-10.46923901 0.24134389 -5.40603486 -0.15157107 0 0 Z " fill="#7C859B" transform="translate(194,89)"/>
<path d="M0 0 C-1.485 1.485 -1.485 1.485 -3 3 C-2.34 3.33 -1.68 3.66 -1 4 C-1.66 4.928125 -2.32 5.85625 -3 6.8125 C-5.26574554 9.79636556 -5.26574554 9.79636556 -5 13 C-5.66 13 -6.32 13 -7 13 C-8.26438344 8.08295331 -7.58345001 4.75035002 -6 0 C-3 -1 -3 -1 0 0 Z " fill="#F20F10" transform="translate(140,121)"/>
<path d="M0 0 C-0.60702632 6.6772895 -2.77631394 12.70127996 -5 19 C-6.06354855 15.3410755 -5.83070279 12.73816257 -5 9 C-4.67 8.67 -4.34 8.34 -4 8 C-4.33 7.01 -4.66 6.02 -5 5 C-4.6875 2.875 -4.6875 2.875 -4 1 C-2 0 -2 0 0 0 Z " fill="#7287A8" transform="translate(93,149)"/>
<path d="M0 0 C0 0.99 0 1.98 0 3 C-0.66 3 -1.32 3 -2 3 C-2 3.66 -2 4.32 -2 5 C-2.56847656 4.91621094 -3.13695312 4.83242187 -3.72265625 4.74609375 C-8.76635545 4.08089803 -13.00294069 4.0431163 -18 5 C-13.61274907 0.61274907 -6.00012433 -0.47369403 0 0 Z " fill="#4A5570" transform="translate(32,154)"/>
<path d="M0 0 C0 0.66 0 1.32 0 2 C-4.07369424 4.03684712 -6.58937864 4.0257259 -11 3 C-11 3.66 -11 4.32 -11 5 C-11.99 4.67 -12.98 4.34 -14 4 C-14.33 3.01 -14.66 2.02 -15 1 C-9.94997778 -0.03590199 -5.12583611 -0.10251672 0 0 Z " fill="#141E3E" transform="translate(203,89)"/>
<path d="M0 0 C1.03028044 2.45475514 2.04945504 4.91314351 3.0625 7.375 C3.35705078 8.07367188 3.65160156 8.77234375 3.95507812 9.4921875 C4.69591098 11.30504908 5.35396964 13.15123143 6 15 C5.67 15.66 5.34 16.32 5 17 C3.5 15.75 3.5 15.75 2 14 C2 12.68 2 11.36 2 10 C1.34 10 0.68 10 0 10 C0.33 8.68 0.66 7.36 1 6 C0.34 6 -0.32 6 -1 6 C-1.33 5.01 -1.66 4.02 -2 3 C-4.00016466 1.79117904 -4.00016466 1.79117904 -6 1 C-3 0 -3 0 0 0 Z " fill="#CE5659" transform="translate(165,109)"/>
<path d="M0 0 C7.92 0.33 15.84 0.66 24 1 C24 1.33 24 1.66 24 2 C14.96278689 2.94242818 6.07448253 3.11157151 -3 3 C-2.01 2.67 -1.02 2.34 0 2 C0 1.34 0 0.68 0 0 Z " fill="#AB0704" transform="translate(156,177)"/>
<path d="M0 0 C2.4375 0.375 2.4375 0.375 5 1 C5.33 1.66 5.66 2.32 6 3 C6.66 3 7.32 3 8 3 C8.33 2.34 8.66 1.68 9 1 C8.67 3.64 8.34 6.28 8 9 C7.34 9 6.68 9 6 9 C5.67 9.66 5.34 10.32 5 11 C4.34 11 3.68 11 3 11 C3.66 9.35 4.32 7.7 5 6 C2.525 5.01 2.525 5.01 0 4 C0 2.68 0 1.36 0 0 Z " fill="#1C3E7D" transform="translate(85,140)"/>
<path d="M0 0 C0.33 0.66 0.66 1.32 1 2 C1.99 2.33 2.98 2.66 4 3 C1.75194998 3.67321284 -0.49852224 4.33834123 -2.75 5 C-4.00296875 5.37125 -5.2559375 5.7425 -6.546875 6.125 C-10 7 -10 7 -14 7 C-13.67 5.68 -13.34 4.36 -13 3 C-12.21625 3.020625 -11.4325 3.04125 -10.625 3.0625 C-8.01885039 3.18684063 -8.01885039 3.18684063 -6 2 C-3.99199544 2.28112064 -1.98985949 2.61067967 0 3 C0 2.01 0 1.02 0 0 Z " fill="#506892" transform="translate(139,106)"/>
<path d="M0 0 C0.33 0 0.66 0 1 0 C2.33906947 7.3040153 2.33906947 7.3040153 0.8125 10.4375 C-1.15278336 12.13170979 -2.45156411 12.6484916 -5 13 C-3.58192622 8.52761347 -1.88695626 4.28853694 0 0 Z " fill="#465169" transform="translate(44,159)"/>
<path d="M0 0 C0 0.66 0 1.32 0 2 C0.99 2.33 1.98 2.66 3 3 C3.99 3.66 4.98 4.32 6 5 C5.07767578 4.98259766 5.07767578 4.98259766 4.13671875 4.96484375 C2.92435547 4.95130859 2.92435547 4.95130859 1.6875 4.9375 C0.88699219 4.92589844 0.08648437 4.91429688 -0.73828125 4.90234375 C-3.16861334 4.90342145 -3.16861334 4.90342145 -6 6 C-6.66 4.68 -7.32 3.36 -8 2 C-5.09399739 0.74335022 -3.20395416 0 0 0 Z " fill="#192D53" transform="translate(166,93)"/>
<path d="M0 0 C0.33 0 0.66 0 1 0 C1 1.65 1 3.3 1 5 C1.66 5 2.32 5 3 5 C3.33 6.32 3.66 7.64 4 9 C3.34 9 2.68 9 2 9 C2.33 10.65 2.66 12.3 3 14 C2.01 14 1.02 14 0 14 C-2.13999677 9.72000646 -1.09321611 4.50951645 0 0 Z " fill="#BC0B0E" transform="translate(171,130)"/>
<path d="M0 0 C3.70722086 3.19588005 5.40645479 6.38710598 7 11 C6.67 11.99 6.34 12.98 6 14 C6 13.34 6 12.68 6 12 C4.68 12 3.36 12 2 12 C0.74105154 7.75104893 0 4.39401479 0 0 Z " fill="#AE3938" transform="translate(183,162)"/>
<path d="M0 0 C1.35814777 4.0744433 -0.05254238 6.81468116 -1.4375 10.6875 C-1.68048828 11.38939453 -1.92347656 12.09128906 -2.17382812 12.81445312 C-2.7744944 14.54578532 -3.38619719 16.27328137 -4 18 C-4.66 17.34 -5.32 16.68 -6 16 C-5.46428571 12.46428571 -5.46428571 12.46428571 -4 11 C-3.87625 9.906875 -3.7525 8.81375 -3.625 7.6875 C-3.01508516 4.08900247 -2.41455588 2.62451727 0 0 Z " fill="#7A92B7" transform="translate(113,86)"/>
<path d="M0 0 C0.66 0.33 1.32 0.66 2 1 C1.97679687 1.59167969 1.95359375 2.18335938 1.9296875 2.79296875 C1.82305633 7.46189082 2.14292629 10.66682802 4 15 C3.55859375 17.13671875 3.55859375 17.13671875 3 19 C2.13237686 16.75438718 1.2807897 14.50473745 0.4375 12.25 C0.19064453 11.61578125 -0.05621094 10.9815625 -0.31054688 10.328125 C-2.50611454 4.39081525 -2.50611454 4.39081525 -1 1 C-0.67 0.67 -0.34 0.34 0 0 Z " fill="#EE797A" transform="translate(134,135)"/>
<path d="M0 0 C2.475 0.495 2.475 0.495 5 1 C5 1.99 5 2.98 5 4 C5.66 4 6.32 4 7 4 C7 5.65 7 7.3 7 9 C6.01 9 5.02 9 4 9 C3.34 7.02 2.68 5.04 2 3 C1.34 3 0.68 3 0 3 C0 2.01 0 1.02 0 0 Z " fill="#C30B0A" transform="translate(159,111)"/>
<path d="M0 0 C1.80030122 2.70045182 2.93377066 5.06677881 4.125 8.0625 C4.47820312 8.94035156 4.83140625 9.81820312 5.1953125 10.72265625 C6 13 6 13 6 15 C4.68 14.67 3.36 14.34 2 14 C2 11.36 2 8.72 2 6 C0.68 5.34 -0.64 4.68 -2 4 C-1.34 2.68 -0.68 1.36 0 0 Z " fill="#717B94" transform="translate(144,57)"/>
<path d="M0 0 C0.66 0.66 1.32 1.32 2 2 C0.5882217 2.53394179 -0.82970244 3.05165104 -2.25 3.5625 C-3.03890625 3.85253906 -3.8278125 4.14257812 -4.640625 4.44140625 C-7.23872985 5.05652048 -8.53254449 4.96483837 -11 4 C-11.66 3.34 -12.32 2.68 -13 2 C-10.87745145 1.61136435 -8.75183172 1.23946791 -6.625 0.875 C-4.84996094 0.56175781 -4.84996094 0.56175781 -3.0390625 0.2421875 C-2.03617188 0.16226563 -1.03328125 0.08234375 0 0 Z " fill="#B4B7BB" transform="translate(222,84)"/>
<path d="M0 0 C1.65 0.33 3.3 0.66 5 1 C4.4409112 4.24271506 3.5867822 5.93057424 1 8 C0.34 8 -0.32 8 -1 8 C-1.125 2.25 -1.125 2.25 0 0 Z " fill="#173064" transform="translate(91,45)"/>
<path d="M0 0 C-5.28 0.66 -10.56 1.32 -16 2 C-14.720327 -0.55934601 -13.75798964 -0.6989233 -11.125 -1.6875 C-10.07699219 -2.09548828 -10.07699219 -2.09548828 -9.0078125 -2.51171875 C-5.49492214 -3.36602088 -3.16514085 -1.58257042 0 0 Z " fill="#ACB2BA" transform="translate(16,162)"/>
<path d="M0 0 C0.53625 0.37125 1.0725 0.7425 1.625 1.125 C0.965 1.125 0.305 1.125 -0.375 1.125 C-0.375 1.785 -0.375 2.445 -0.375 3.125 C0.945 3.455 2.265 3.785 3.625 4.125 C1.95888095 4.167721 0.29117115 4.16563832 -1.375 4.125 C-1.705 3.795 -2.035 3.465 -2.375 3.125 C-2.705 3.785 -3.035 4.445 -3.375 5.125 C-4.365 4.795 -5.355 4.465 -6.375 4.125 C-6.045 3.465 -5.715 2.805 -5.375 2.125 C-6.365 1.795 -7.355 1.465 -8.375 1.125 C-2.95961538 -1.09038462 -2.95961538 -1.09038462 0 0 Z " fill="#0F1C3E" transform="translate(42.375,151.875)"/>
<path d="M0 0 C0.99 0.495 0.99 0.495 2 1 C2 1.66 2 2.32 2 3 C2.66 3 3.32 3 4 3 C5.75 4.6875 5.75 4.6875 7 7 C6.1875 9.75 6.1875 9.75 5 12 C4.34 12 3.68 12 3 12 C2.49440092 10.56445975 1.9957251 9.1264798 1.5 7.6875 C1.2215625 6.88699219 0.943125 6.08648437 0.65625 5.26171875 C0 3 0 3 0 0 Z " fill="#E20D10" transform="translate(136,141)"/>
<path d="M0 0 C1.9375 0.9375 1.9375 0.9375 4 3 C4.45549221 5.36259979 4.62546719 7.63610476 4.7265625 10.0390625 C4.81679687 10.68617187 4.90703125 11.33328125 5 12 C5.66 12.33 6.32 12.66 7 13 C6.01 14.485 6.01 14.485 5 16 C4.1605118 13.89828133 3.32860344 11.79353375 2.5 9.6875 C2.0359375 8.51574219 1.571875 7.34398438 1.09375 6.13671875 C0 3 0 3 0 0 Z " fill="#849ABB" transform="translate(117,90)"/>
<path d="M0 0 C1.98 0.495 1.98 0.495 4 1 C4.33 2.98 4.66 4.96 5 7 C3.35 7.33 1.7 7.66 0 8 C-0.79953138 4.71303767 -1.09658936 3.28976808 0 0 Z " fill="#192A56" transform="translate(146,71)"/>
<path d="M0 0 C0.66 0.33 1.32 0.66 2 1 C1.01 2.32 0.02 3.64 -1 5 C-0.34 5.33 0.32 5.66 1 6 C0.690625 6.5775 0.38125 7.155 0.0625 7.75 C-0.92871384 9.84904107 -1.47548801 11.75074138 -2 14 C-2.16947579 12.58366664 -2.33545507 11.16691467 -2.5 9.75 C-2.5928125 8.96109375 -2.685625 8.1721875 -2.78125 7.359375 C-3 5 -3 5 -3 1 C-2.01 0.67 -1.02 0.34 0 0 Z " fill="#F13F41" transform="translate(133,122)"/>
<path d="M0 0 C0.99 0.33 1.98 0.66 3 1 C3.8125 2.875 3.8125 2.875 4 5 C2 8 2 8 0 9 C-0.66 7.02 -1.32 5.04 -2 3 C-1.34 3 -0.68 3 0 3 C0 2.01 0 1.02 0 0 Z " fill="#20458A" transform="translate(106,93)"/>
<path d="M0 0 C1.65 0.33 3.3 0.66 5 1 C4.25 6.75 4.25 6.75 2 9 C2 7.68 2 6.36 2 5 C1.01 5 0.02 5 -1 5 C-0.67 3.35 -0.34 1.7 0 0 Z " fill="#5D6F94" transform="translate(82,167)"/>
<path d="M0 0 C2.79872437 2.52788007 4.45773019 4.20411134 5 8 C2.69 7.67 0.38 7.34 -2 7 C-1.34 4.69 -0.68 2.38 0 0 Z " fill="#4B6495" transform="translate(65,104)"/>
<path d="M0 0 C1.45792884 -0.05399736 2.91642712 -0.09279177 4.375 -0.125 C5.18710938 -0.14820312 5.99921875 -0.17140625 6.8359375 -0.1953125 C9 0 9 0 11 2 C8.03 2.66 5.06 3.32 2 4 C2 3.01 2 2.02 2 1 C1.34 0.67 0.68 0.34 0 0 Z " fill="#45526F" transform="translate(164,98)"/>
<path d="M0 0 C-4.90924297 3.92739438 -7.73920552 4.43177893 -14 4 C-11.58592302 2.39061535 -9.65955563 1.34509262 -7 0.3125 C-5.9790625 -0.09548828 -5.9790625 -0.09548828 -4.9375 -0.51171875 C-3 -1 -3 -1 0 0 Z " fill="#E16D6F" transform="translate(156,113)"/>
<path d="M0 0 C0 0.99 0 1.98 0 3 C-1.98 3.66 -3.96 4.32 -6 5 C-6.66 4.34 -7.32 3.68 -8 3 C-7 1 -7 1 -4.5625 -0.1875 C-2 -1 -2 -1 0 0 Z " fill="#CC0B0E" transform="translate(158,113)"/>
<path d="M0 0 C2.475 0.99 2.475 0.99 5 2 C4.67 4.31 4.34 6.62 4 9 C1.49701566 6.06171403 0.53069061 3.82097239 0 0 Z " fill="#6077A4" transform="translate(113,80)"/>
<path d="M0 0 C3.57011026 3.732388 4.10913442 8.0949989 5 13 C4.01 13 3.02 13 2 13 C1.05675742 8.68803391 0.51958285 4.37934119 0 0 Z " fill="#868EA1" transform="translate(139,44)"/>
<path d="M0 0 C1.98 0.495 1.98 0.495 4 1 C4 3.64 4 6.28 4 9 C2.2925002 7.71937515 0.62626404 6.38232443 -1 5 C-1 4.34 -1 3.68 -1 3 C-0.34 3 0.32 3 1 3 C0.67 2.01 0.34 1.02 0 0 Z " fill="#122244" transform="translate(137,48)"/>
<path d="M0 0 C0.33 0.66 0.66 1.32 1 2 C0.01 2.66 -0.98 3.32 -2 4 C-2.66 4.66 -3.32 5.32 -4 6 C-6.125 5.625 -6.125 5.625 -8 5 C-7.67 4.01 -7.34 3.02 -7 2 C-3.4375 0.8125 -3.4375 0.8125 0 0 Z " fill="#132652" transform="translate(60,145)"/>
<path d="M0 0 C2 3 2 3 2 5 C2.99 5.33 3.98 5.66 5 6 C4.67 8.31 4.34 10.62 4 13 C1.12420019 8.68630028 0 5.19265239 0 0 Z " fill="#E2888A" transform="translate(140,160)"/>
<path d="M0 0 C0.99 0 1.98 0 3 0 C3 0.99 3 1.98 3 3 C3.66 3 4.32 3 5 3 C4.67 4.32 4.34 5.64 4 7 C2.35 7 0.7 7 -1 7 C-1 6.34 -1 5.68 -1 5 C-0.01 5 0.98 5 2 5 C1.34 3.35 0.68 1.7 0 0 Z " fill="#D62126" transform="translate(156,111)"/>
<path d="M0 0 C-0.99 0.33 -1.98 0.66 -3 1 C-3 1.66 -3 2.32 -3 3 C-5.31 3 -7.62 3 -10 3 C-10 2.34 -10 1.68 -10 1 C-6.61981469 -0.04005702 -3.5219721 -0.08004482 0 0 Z " fill="#2A2E45" transform="translate(214,87)"/>
<path d="M0 0 C1.32 0.33 2.64 0.66 4 1 C4 3.64 4 6.28 4 9 C3.71125 8.38125 3.4225 7.7625 3.125 7.125 C2.06279958 4.86674235 2.06279958 4.86674235 0 3 C0 2.01 0 1.02 0 0 Z " fill="#B01015" transform="translate(144,170)"/>
<path d="M0 0 C0.66 0.33 1.32 0.66 2 1 C1.67 2.65 1.34 4.3 1 6 C-0.32 5.67 -1.64 5.34 -3 5 C-2.01 3.35 -1.02 1.7 0 0 Z " fill="#A80E10" transform="translate(181,156)"/>
<path d="M0 0 C0.66 1.32 1.32 2.64 2 4 C-0.97 3.505 -0.97 3.505 -4 3 C-4.33 3.66 -4.66 4.32 -5 5 C-5 4.34 -5 3.68 -5 3 C-5.66 2.67 -6.32 2.34 -7 2 C-4.69 1.34 -2.38 0.68 0 0 Z " fill="#112549" transform="translate(50,148)"/>
<path d="M0 0 C-1.4375 1.5625 -1.4375 1.5625 -4 3 C-7.05380927 2.96846324 -9.99653222 2.53266629 -13 2 C-13 1.67 -13 1.34 -13 1 C-8.61414671 0.29826347 -4.44209357 -0.10834375 0 0 Z " fill="#0F1C38" transform="translate(180,92)"/>
<path d="M0 0 C0.99 0.33 1.98 0.66 3 1 C2.67 3.64 2.34 6.28 2 9 C-0.29013653 5.5647952 -0.17842973 4.014669 0 0 Z " fill="#B50508" transform="translate(177,150)"/>
<path d="M0 0 C2.31 0.33 4.62 0.66 7 1 C3.73454239 2.88391785 0.71888239 3.49287967 -3 4 C-2.34 3.67 -1.68 3.34 -1 3 C-0.67 2.01 -0.34 1.02 0 0 Z " fill="#63769B" transform="translate(147,104)"/>
</svg>
